<svg xmlns="http://www.w3.org/2000/svg" xmlns:xlink="http://www.w3.org/1999/xlink" viewBox="544 242 138 138"><defs><style>.a,.c{fill:none;}.b{fill:#ebba09;}.c{stroke:#ebba09;stroke-width:6px;}.d{clip-path:url(#c);}.e{fill:#eaba09;}.f{filter:url(#a);}</style><filter id="a" x="544" y="242" width="138" height="138" filterUnits="userSpaceOnUse"><feOffset dy="3" input="SourceAlpha"/><feGaussianBlur stdDeviation="3" result="b"/><feFlood flood-opacity="0.161"/><feComposite operator="in" in2="b"/><feComposite in="SourceGraphic"/></filter><clipPath id="c"><path class="a" d="M19.105-10.351,3.617,2.371A2.213,2.213,0,0,1,0,.661V-24.783a2.213,2.213,0,0,1,3.617-1.71L19.105-13.771A2.213,2.213,0,0,1,19.105-10.351Z" transform="translate(0 27)"/></clipPath></defs><g transform="translate(569 262)"><g class="f" transform="matrix(1, 0, 0, 1, -569, -262)"><rect width="120" height="120" rx="28" transform="translate(553 248)"/></g><circle class="b" cx="3" cy="3" r="3" transform="translate(78.162 76.62)"/><path class="c" d="M30.976,0A30.976,30.976,0,1,1,0,30.976" transform="translate(74.776 74.776) rotate(-180)"/><rect class="b" width="5.868" height="16.43" rx="2.934" transform="translate(62.786 64.457) rotate(-45)"/><g class="d" transform="translate(36.794 28.681)"><path class="e" d="M-5,8.941H25.976V-32H-5Z" transform="translate(-0.531 26.469)"/></g><path class="c" d="M30.976,0A30.976,30.976,0,1,1,0,30.976" transform="matrix(-0.719, -0.695, 0.695, -0.719, 44.565, 87.6)"/><circle class="b" cx="3" cy="3" r="3" transform="translate(40.783 71.759)"/></g></svg>